<?xml version="1.0" encoding="UTF-8" standalone="no" ?>
<!DOCTYPE svg PUBLIC "-//W3C//DTD SVG 1.1//EN" "http://www.w3.org/Graphics/SVG/1.1/DTD/svg11.dtd">
<svg xmlns="http://www.w3.org/2000/svg" xmlns:xlink="http://www.w3.org/1999/xlink" version="1.1" width="1080" height="1080" viewBox="0 0 1080 1080" xml:space="preserve">
<desc>Created with Fabric.js 5.2.4</desc>
<defs>
</defs>
<g transform="matrix(1 0 0 1 540 540)" id="70da77ff-6ed1-455a-b0ed-69aa85547f31"  >
<rect style="stroke: none; stroke-width: 1; stroke-dasharray: none; stroke-linecap: butt; stroke-dashoffset: 0; stroke-linejoin: miter; stroke-miterlimit: 4; fill: rgb(255,255,255); fill-rule: nonzero; opacity: 1; visibility: hidden;" vector-effect="non-scaling-stroke"  x="-540" y="-540" rx="0" ry="0" width="1080" height="1080" />
</g>
<g transform="matrix(1 0 0 1 540 540)" id="e6c97671-3fe2-4916-80bf-017ea22f6a0f"  >
</g>
<g transform="matrix(45 0 0 45 540 540)"  >
<g style=""   >
		<g transform="matrix(1 0 0 1 -4.3 -5.55)"  >
<path style="stroke: none; stroke-width: 1; stroke-dasharray: none; stroke-linecap: butt; stroke-dashoffset: 0; stroke-linejoin: miter; stroke-miterlimit: 4; fill: rgb(83,87,102); fill-rule: nonzero; opacity: 1;" vector-effect="non-scaling-stroke"  transform=" translate(-7.7, -6.45)" d="M 15.19 8.606 L 15.19 4.3 C 15.190003963015403 3.9559902182402995 14.912005818767124 3.676651246929729 14.568 3.675 L 6.384 3.675 L 6.384 0.672 C 6.385236345752566 0.4099900273521575 6.222660415603441 0.1751137449745525 5.977 0.08400000000000007 C 5.733328786195799 -0.006556923740405937 5.459039184551157 0.06451083330871504 5.29 0.2620000000000002 L 0.367 6.048 C 0.16848223733893283 6.2822664492172 0.16848223733893278 6.6257335507828 0.367 6.86 L 5.29 12.638 C 5.4590273496089186 12.835378481300936 5.732421577212339 12.907806064159484 5.977 12.82 C 6.222660415603441 12.728886255025447 6.385236345752565 12.494009972647843 6.384 12.232000000000001 L 6.384 9.228 L 14.568 9.228 C 14.732954554260958 9.228266915025394 14.89121522997834 9.162788610988883 15.007761990864669 9.046054174159098 C 15.124308751750998 8.929319737329314 15.189532328111095 8.770953911265677 15.189 8.606 z M 13.946 7.981 L 5.762 7.981 C 5.4183851511535766 7.983199180000219 5.140992962552166 8.262378113777807 5.141 8.606 L 5.141 10.544 L 1.657 6.454000000000001 L 5.14 2.362 L 5.14 4.3 C 5.14 4.644 5.42 4.925 5.760999999999999 4.925 L 13.944999999999999 4.925 L 13.944999999999999 7.981 z" stroke-linecap="round" />
</g>
		<g transform="matrix(1 0 0 1 3.37 1.44)"  >
<path style="stroke: none; stroke-width: 1; stroke-dasharray: none; stroke-linecap: butt; stroke-dashoffset: 0; stroke-linejoin: miter; stroke-miterlimit: 4; fill: rgb(83,87,102); fill-rule: nonzero; opacity: 1;" vector-effect="non-scaling-stroke"  transform=" translate(-15.37, -13.44)" d="M 22.708 13.028 L 17.785 7.25 C 17.616617877071675 7.0514612371884615 17.341606501483838 6.980206470296707 17.098 7.072 C 16.85268461169188 7.1629876431210615 16.69018408285229 7.397355727712806 16.691 7.659 L 16.691 10.661999999999999 L 8.507 10.661999999999999 C 8.162994181232875 10.663651246929728 7.884996036984596 10.942990218240299 7.885 11.286999999999999 L 7.885 15.591 C 7.885 15.934 8.165 16.216 8.507 16.216 L 16.691 16.216 L 16.691 19.219 C 16.690444989801215 19.56284757217464 16.968155951604995 19.842347332444145 17.311999999999998 19.844 C 17.494006407329863 19.84323300237408 17.66666732610803 19.763290631946134 17.784999999999997 19.625 L 22.708 13.844000000000001 C 22.907120933162737 13.608442229801103 22.907120933162737 13.263557770198899 22.708 13.028 z M 17.933999999999997 17.525 L 17.933999999999997 15.588 C 17.9340039630154 15.243990218240299 17.65600581876712 14.964651246929728 17.311999999999998 14.963 L 9.13 14.963 L 9.13 11.908999999999999 L 17.313000000000002 11.908999999999999 C 17.657005818767125 11.90734875307027 17.935003963015404 11.6280097817597 17.935000000000002 11.283999999999999 L 17.935000000000002 9.347 L 21.419000000000004 13.437 L 17.935000000000002 17.525 z" stroke-linecap="round" />
</g>
</g>
</g>
</svg>