<?xml version="1.0" encoding="UTF-8" standalone="no" ?>
<!DOCTYPE svg PUBLIC "-//W3C//DTD SVG 1.1//EN" "http://www.w3.org/Graphics/SVG/1.1/DTD/svg11.dtd">
<svg xmlns="http://www.w3.org/2000/svg" xmlns:xlink="http://www.w3.org/1999/xlink" version="1.1" width="1080" height="1080" viewBox="0 0 1080 1080" xml:space="preserve">
<desc>Created with Fabric.js 5.2.4</desc>
<defs>
</defs>
<g transform="matrix(1 0 0 1 540 540)" id="f82405ad-e947-4822-9c66-4418404d134b"  >
<rect style="stroke: none; stroke-width: 1; stroke-dasharray: none; stroke-linecap: butt; stroke-dashoffset: 0; stroke-linejoin: miter; stroke-miterlimit: 4; fill: rgb(255,255,255); fill-rule: nonzero; opacity: 1; visibility: hidden;" vector-effect="non-scaling-stroke"  x="-540" y="-540" rx="0" ry="0" width="1080" height="1080" />
</g>
<g transform="matrix(1 0 0 1 540 540)" id="982ae3d6-59e4-4c2f-a9e5-9e5556f4179b"  >
</g>
<g transform="matrix(60 0 0 60 540 540)"  >
<g style=""   >
		<g transform="matrix(1 0 0 1 0 0)"  >
<path style="stroke: none; stroke-width: 1; stroke-dasharray: none; stroke-linecap: butt; stroke-dashoffset: 0; stroke-linejoin: miter; stroke-miterlimit: 4; fill: rgb(0,0,0); fill-rule: evenodd; opacity: 1;" vector-effect="non-scaling-stroke"  transform=" translate(-9, -9)" d="M 15.292 10.687 L 15.292 10.687999999999999 C 15.094 11.43 15.368 12.142 15.588 12.713999999999999 L 15.633 12.833999999999998 L 15.495999999999999 12.854999999999999 C 14.893999999999998 12.948999999999998 14.143999999999998 13.065999999999999 13.604 13.604999999999999 C 13.065999999999999 14.145 12.949 14.892999999999999 12.856 15.495 L 12.834 15.633 C 12.793956582907922 15.618116034730447 12.753956414698667 15.603115971651974 12.713999999999999 15.587999999999997 C 12.271 15.417 11.768 15.223999999999998 11.224 15.223999999999998 C 11.039 15.223999999999998 10.858 15.246999999999998 10.688 15.291999999999998 C 9.96 15.485999999999999 9.49 16.072 9.111 16.540999999999997 C 9.079 16.580999999999996 9.041 16.628999999999998 9 16.677999999999997 L 8.888 16.539999999999996 C 8.51 16.069999999999997 8.04 15.485999999999995 7.313 15.291999999999996 C 7.137700091413233 15.24617385299152 6.9571894745958955 15.223315897789325 6.776 15.223999999999997 C 6.233 15.223999999999997 5.7299999999999995 15.416999999999996 5.286 15.587999999999997 L 5.1659999999999995 15.632999999999997 L 5.143999999999999 15.494999999999997 C 5.050999999999999 14.892999999999997 4.933999999999999 14.144999999999998 4.395 13.604999999999997 C 3.8559999999999994 13.065999999999997 3.106 12.948999999999996 2.5039999999999996 12.854999999999997 L 2.3669999999999995 12.832999999999997 C 2.3818343534412767 12.7936036959709 2.3968344863507856 12.754270014119294 2.411999999999996 12.715 C 2.6319999999999997 12.141999999999996 2.9059999999999997 11.428999999999997 2.7079999999999993 10.687999999999995 C 2.5139999999999993 9.959999999999996 1.9279999999999993 9.488999999999995 1.4579999999999993 9.110999999999995 L 1.323 9 L 1.46 8.89 C 1.93 8.51 2.5149999999999997 8.040000000000001 2.709 7.313000000000001 C 2.907 6.571000000000001 2.633 5.8580000000000005 2.4130000000000003 5.285 L 2.3680000000000003 5.167 L 2.5050000000000003 5.145 C 3.107 5.050999999999999 3.857 4.933999999999999 4.396000000000001 4.395 C 4.936000000000001 3.8559999999999994 5.0520000000000005 3.106 5.146000000000001 2.5039999999999996 L 5.168000000000001 2.3669999999999995 L 5.287000000000001 2.4119999999999995 C 5.73 2.5829999999999993 6.234000000000001 2.7769999999999992 6.777000000000001 2.7769999999999992 C 6.963000000000001 2.7769999999999992 7.144000000000001 2.7529999999999992 7.314000000000001 2.7069999999999994 C 8.041 2.5139999999999993 8.512 1.9289999999999994 8.89 1.4589999999999994 L 9 1.322 L 9.111 1.459 C 9.49 1.929 9.961 2.5140000000000002 10.687000000000001 2.708 C 10.857000000000001 2.753 11.039000000000001 2.777 11.224000000000002 2.777 C 11.768000000000002 2.777 12.271000000000003 2.583 12.715000000000002 2.412 L 12.834000000000001 2.367 L 12.856000000000002 2.504 C 12.950000000000001 3.106 13.066000000000003 3.857 13.606000000000002 4.395 C 14.144000000000002 4.933999999999999 14.894000000000002 5.050999999999999 15.496000000000002 5.145 L 15.634000000000002 5.167 L 15.588000000000003 5.286 C 15.368000000000002 5.858 15.094000000000003 6.571 15.293000000000003 7.311999999999999 C 15.487000000000004 8.04 16.071 8.511 16.541000000000004 8.889 C 16.581000000000003 8.921999999999999 16.629000000000005 8.959 16.678000000000004 9 L 16.541000000000004 9.11 C 16.071000000000005 9.49 15.487000000000004 9.959999999999999 15.292000000000003 10.687 M 18 9 C 18 8.256 16.541 7.714 16.358 7.0280000000000005 C 16.168 6.3180000000000005 17.155 5.121 16.795 4.4990000000000006 C 16.431 3.8690000000000007 14.897000000000002 4.127000000000001 14.385000000000002 3.6150000000000007 C 13.874000000000002 3.1040000000000005 14.132000000000001 1.5700000000000007 13.502000000000002 1.2050000000000005 C 13.401084164555147 1.1494290261863187 13.287160629232092 1.1218111994413353 13.172000000000002 1.1250000000000004 C 12.587000000000003 1.1250000000000004 11.769000000000002 1.6670000000000005 11.174000000000003 1.6670000000000005 C 11.106196850802188 1.667461106484749 11.03862433438114 1.659056564641335 10.973000000000003 1.6420000000000006 C 10.286 1.46 9.743 0 9 0 C 8.256 0 7.714 1.459 7.0280000000000005 1.642 C 6.96269512472814 1.6589480357606041 6.895467318681491 1.6673515115164352 6.828 1.6669999999999998 C 6.232 1.6669999999999998 5.414000000000001 1.1249999999999998 4.828 1.1249999999999998 C 4.71283937076791 1.121811199441335 4.5989158354448545 1.1494290261863183 4.497999999999999 1.205 C 3.8680000000000003 1.5699999999999998 4.128 3.1029999999999998 3.615 3.615 C 3.103 4.127000000000001 1.5690000000000004 3.869 1.205 4.4990000000000006 C 0.8450000000000001 5.119000000000001 1.832 6.3180000000000005 1.6420000000000001 7.0280000000000005 C 1.46 7.714 0 8.256 0 9 C 0 9.744 1.459 10.286 1.642 10.972 C 1.8319999999999999 11.681999999999999 0.8449999999999999 12.879999999999999 1.2049999999999998 13.501999999999999 C 1.569 14.132 3.1029999999999998 13.873 3.615 14.384999999999998 C 4.126 14.896999999999998 3.8680000000000003 16.43 4.4990000000000006 16.794999999999998 C 4.596000000000001 16.851 4.707000000000001 16.874999999999996 4.829000000000001 16.874999999999996 C 5.414000000000001 16.874999999999996 6.232000000000001 16.332999999999995 6.827000000000001 16.332999999999995 C 6.894801810592326 16.332561727959757 6.962371369762689 16.34096590198592 7.0280000000000005 16.357999999999993 C 7.714 16.54 8.256 18 9 18 C 9.744 18 10.286 16.54 10.973 16.358 C 11.038292017756957 16.340984888808897 11.10552863234237 16.332580311985723 11.173 16.333000000000002 C 11.768 16.333000000000002 12.586 16.875000000000004 13.171 16.875000000000004 C 13.28616062923209 16.878188800558668 13.400084164555144 16.850570973813685 13.501 16.795000000000005 C 14.132 16.430000000000007 13.873999999999999 14.897000000000006 14.385 14.385000000000005 C 14.897 13.873000000000005 16.431 14.131000000000006 16.795 13.501000000000005 C 17.155 12.881000000000006 16.168000000000003 11.682000000000006 16.358 10.972000000000005 C 16.54 10.286 18 9.744 18 9" stroke-linecap="round" />
</g>
		<g transform="matrix(1 0 0 1 0 0)"  >
<path style="stroke: none; stroke-width: 1; stroke-dasharray: none; stroke-linecap: butt; stroke-dashoffset: 0; stroke-linejoin: miter; stroke-miterlimit: 4; fill: rgb(0,0,0); fill-rule: evenodd; opacity: 1;" vector-effect="non-scaling-stroke"  transform=" translate(-9, -9)" d="M 10.897 6.34 L 6.344 10.902000000000001 C 6.1346840798141296 11.111868204935703 6.135131795064299 11.45168407981413 6.345000000000001 11.661000000000001 C 6.554868204935702 11.87031592018587 6.894684079814129 11.8698682049357 7.104 11.66 L 11.655999999999999 7.098 C 11.86531592018587 6.888131795064298 11.8648682049357 6.548315920185871 11.655 6.339 C 11.445131795064297 6.12968407981413 11.10531592018587 6.130131795064298 10.895999999999999 6.34 M 6.75 7.875 C 7.352882796530657 7.849574581134004 7.8285552953428965 7.353418692349795 7.8285552953428965 6.75 C 7.8285552953428965 6.146581307650205 7.352882796530657 5.650425418865996 6.75 5.625 C 6.147117203469343 5.650425418865996 5.6714447046571035 6.146581307650205 5.6714447046571035 6.750000000000001 C 5.671444704657104 7.353418692349796 6.147117203469343 7.849574581134004 6.75 7.875 M 11.25 10.125 C 10.647117203469342 10.150425418865996 10.171444704657103 10.646581307650205 10.171444704657103 11.25 C 10.171444704657105 11.853418692349795 10.647117203469344 12.349574581134004 11.25 12.375 C 11.852882796530658 12.349574581134004 12.328555295342897 11.853418692349795 12.328555295342897 11.25 C 12.328555295342897 10.646581307650205 11.852882796530658 10.150425418865996 11.25 10.125" stroke-linecap="round" />
</g>
</g>
</g>
</svg>