<?xml version="1.0" encoding="UTF-8" standalone="no" ?>
<!DOCTYPE svg PUBLIC "-//W3C//DTD SVG 1.1//EN" "http://www.w3.org/Graphics/SVG/1.1/DTD/svg11.dtd">
<svg xmlns="http://www.w3.org/2000/svg" xmlns:xlink="http://www.w3.org/1999/xlink" version="1.1" width="1080" height="1080" viewBox="0 0 1080 1080" xml:space="preserve">
<desc>Created with Fabric.js 5.2.4</desc>
<defs>
</defs>
<g transform="matrix(1 0 0 1 540 540)" id="d0431817-4208-4326-a1ad-32a609fb674a"  >
<rect style="stroke: none; stroke-width: 1; stroke-dasharray: none; stroke-linecap: butt; stroke-dashoffset: 0; stroke-linejoin: miter; stroke-miterlimit: 4; fill: rgb(255,255,255); fill-rule: nonzero; opacity: 1; visibility: hidden;" vector-effect="non-scaling-stroke"  x="-540" y="-540" rx="0" ry="0" width="1080" height="1080" />
</g>
<g transform="matrix(1 0 0 1 540 540)" id="059b82f8-2fc5-4166-bee0-0624c5c91785"  >
</g>
<g transform="matrix(54 0 0 54 540 540)"  >
<path style="stroke: rgb(0,0,0); stroke-width: 0.2; stroke-dasharray: none; stroke-linecap: butt; stroke-dashoffset: 0; stroke-linejoin: miter; stroke-miterlimit: 4; fill: rgb(0,0,0); fill-rule: evenodd; opacity: 1;"  transform=" translate(-10, -9.5)" d="M 18.1 7.26 L 12.250000000000002 7.26 L 12.250000000000002 4.577 L 18.1 4.577 L 18.1 7.2620000000000005 z M 12.250000000000002 17.105 L 17.200000000000003 17.105 L 17.200000000000003 8.155000000000001 L 12.250000000000004 8.155000000000001 L 12.250000000000004 17.105 z M 2.8000000000000025 17.105 L 7.750000000000003 17.105 L 7.750000000000003 8.155000000000001 L 2.8 8.155000000000001 L 2.8 17.105 z M 1.9 4.576 L 7.75 4.576 L 7.75 7.260999999999999 L 1.9 7.260999999999999 L 1.9 4.576 z M 6.195 2.5029999999999997 C 6.1850000000000005 2.405 6.195 2.239 6.388 2.0389999999999997 C 6.508 1.9499999999999997 6.638 1.9289999999999996 6.79 1.9289999999999996 C 7.443 1.9289999999999996 8.355 3.01 9.04 3.6809999999999996 L 6.886 3.6809999999999996 C 6.623 3.4569999999999994 6.23 2.8459999999999996 6.195 2.5029999999999997 z M 11.350000000000001 17.105 L 8.650000000000002 17.105 L 8.650000000000002 4.576 L 11.350000000000001 4.576 L 11.350000000000001 17.105999999999998 z M 13.229000000000001 1.9220000000000006 C 13.381 1.9220000000000006 13.509 1.9500000000000006 13.63 2.0390000000000006 C 13.824000000000002 2.2390000000000008 13.834000000000001 2.4100000000000006 13.824000000000002 2.5090000000000003 C 13.788000000000002 2.8670000000000004 13.374000000000002 3.4570000000000003 13.131000000000002 3.681 L 10.979000000000003 3.681 C 11.664000000000003 3.01 12.575000000000003 1.9220000000000002 13.229000000000003 1.9220000000000002 z M 18.552 3.6820000000000004 L 14.273 3.6820000000000004 C 14.491 3.4570000000000003 14.681 2.9720000000000004 14.719 2.5950000000000006 C 14.75 2.2920000000000007 14.693 1.8250000000000006 14.244 1.3820000000000006 C 14.232 1.3700000000000006 14.219 1.3520000000000005 14.206 1.3420000000000005 C 13.928798234799126 1.1202728975197163 13.583965819524565 1.0002698052030834 13.229 1.0020000000000007 C 11.981 1.0020000000000004 10.642 2.5290000000000004 10.008999999999999 3.3440000000000003 C 9.376 2.529 8.037 1 6.79 1 C 6.418227409462646 0.9975300731554945 6.057967623338438 1.1288563006096393 5.775 1.3699999999999999 C 5.3260000000000005 1.812 5.269 2.2920000000000003 5.300000000000001 2.595 C 5.339 2.971 5.5280000000000005 3.4570000000000003 5.746 3.681 L 1.448 3.681 C 1.201 3.681 1 3.831 1 4.081 L 1 7.691000000000001 C 1 7.941000000000001 1.2 8.156 1.448 8.156 L 1.9 8.156 L 1.9 17.526 C 1.9 17.772 2.09 18 2.32 18 L 17.683 18 C 17.913 18 18.1 17.772 18.1 17.526 L 18.1 8.156 L 18.552000000000003 8.156 C 18.802914763759993 8.149462420785037 19.002267761777983 7.9429896728378315 19 7.692 L 19 4.08 C 19 3.83 18.8 3.68 18.552 3.68 z" stroke-linecap="round" />
</g>
</svg>