<?xml version="1.0" encoding="UTF-8" standalone="no" ?>
<!DOCTYPE svg PUBLIC "-//W3C//DTD SVG 1.1//EN" "http://www.w3.org/Graphics/SVG/1.1/DTD/svg11.dtd">
<svg xmlns="http://www.w3.org/2000/svg" xmlns:xlink="http://www.w3.org/1999/xlink" version="1.1" width="1080" height="1080" viewBox="0 0 1080 1080" xml:space="preserve">
<desc>Created with Fabric.js 5.2.4</desc>
<defs>
</defs>
<g transform="matrix(1 0 0 1 540 540)" id="0756c5a4-83f4-4bc2-8d51-8ff7f591ada1"  >
<rect style="stroke: none; stroke-width: 1; stroke-dasharray: none; stroke-linecap: butt; stroke-dashoffset: 0; stroke-linejoin: miter; stroke-miterlimit: 4; fill: rgb(255,255,255); fill-rule: nonzero; opacity: 1; visibility: hidden;" vector-effect="non-scaling-stroke"  x="-540" y="-540" rx="0" ry="0" width="1080" height="1080" />
</g>
<g transform="matrix(1 0 0 1 540 540)" id="b161ba18-3a98-4236-b6ce-e0c2ac0bf715"  >
</g>
<g transform="matrix(72 0 0 72 540 540)"  >
<g style=""   >
		<g transform="matrix(1 0 0 1 0 0.29)"  >
<path style="stroke: none; stroke-width: 1; stroke-dasharray: none; stroke-linecap: butt; stroke-dashoffset: 0; stroke-linejoin: miter; stroke-miterlimit: 4; fill: rgb(40,44,63); fill-rule: nonzero; opacity: 1;" vector-effect="non-scaling-stroke"  transform=" translate(-7.5, -7.79)" d="M 6.63639 6.99013 C 6.84386 7.1976 6.84386 7.53397 6.63639 7.74143 L 5.7725 8.60533 L 8.27232 8.60533 C 9.21251 8.60533 9.97949 7.84333 9.97949 6.89824 C 9.97949 5.95914 9.21859 5.19824 8.27949 5.19824 L 6.89116 5.19824 C 6.59776 5.19824 6.35991 4.96039 6.35991 4.66699 C 6.35991 4.37359 6.59776 4.13574 6.89116 4.13574 L 8.27949 4.13574 C 9.80539 4.13574 11.042 5.37234 11.042 6.89824 C 11.042 8.43232 9.79722 9.66783 8.27241 9.66783 L 5.77242 9.66783 L 6.63639 10.5318 C 6.84386 10.7393 6.84386 11.0756 6.63639 11.2831 C 6.42893 11.4906 6.09256 11.4906 5.88509 11.2831 L 4.11426 9.51227 C 4.0417 9.43971 3.99452 9.35138 3.97271 9.25831 C 3.96352 9.21922 3.95866 9.17846 3.95866 9.13658 C 3.95866 9.05996 3.97488 8.98713 4.00407 8.92134 C 4.02519 8.87367 4.05366 8.82847 4.08949 8.78745 C 4.09828 8.77738 4.10745 8.76764 4.11697 8.75826 L 5.88509 6.99013 C 6.09256 6.78267 6.42893 6.78267 6.63639 6.99013 Z" stroke-linecap="round" />
</g>
		<g transform="matrix(1 0 0 1 0 0)"  >
<path style="stroke: none; stroke-width: 1; stroke-dasharray: none; stroke-linecap: butt; stroke-dashoffset: 0; stroke-linejoin: miter; stroke-miterlimit: 4; fill: rgb(40,44,63); fill-rule: evenodd; opacity: 1;" vector-effect="non-scaling-stroke"  transform=" translate(-7.5, -7.5)" d="M 0.416992 7.50033 C 0.416992 3.58831 3.58831 0.416992 7.50033 0.416992 C 11.4123 0.416992 14.5837 3.58831 14.5837 7.50033 C 14.5837 11.4123 11.4123 14.5837 7.50033 14.5837 C 3.58831 14.5837 0.416992 11.4123 0.416992 7.50033 Z M 7.50033 1.47949 C 4.17511 1.47949 1.47949 4.17511 1.47949 7.50033 C 1.47949 10.8255 4.17511 13.5212 7.50033 13.5212 C 10.8255 13.5212 13.5212 10.8255 13.5212 7.50033 C 13.5212 4.17511 10.8255 1.47949 7.50033 1.47949 Z" stroke-linecap="round" />
</g>
</g>
</g>
</svg>