<?xml version="1.0" encoding="UTF-8" standalone="no" ?>
<!DOCTYPE svg PUBLIC "-//W3C//DTD SVG 1.1//EN" "http://www.w3.org/Graphics/SVG/1.1/DTD/svg11.dtd">
<svg xmlns="http://www.w3.org/2000/svg" xmlns:xlink="http://www.w3.org/1999/xlink" version="1.1" width="1080" height="1080" viewBox="0 0 1080 1080" xml:space="preserve">
<desc>Created with Fabric.js 5.2.4</desc>
<defs>
</defs>
<g transform="matrix(1 0 0 1 540 540)" id="3350f526-6261-4308-8cf7-c9e27d875a85"  >
<rect style="stroke: none; stroke-width: 1; stroke-dasharray: none; stroke-linecap: butt; stroke-dashoffset: 0; stroke-linejoin: miter; stroke-miterlimit: 4; fill: rgb(255,255,255); fill-rule: nonzero; opacity: 1; visibility: hidden;" vector-effect="non-scaling-stroke"  x="-540" y="-540" rx="0" ry="0" width="1080" height="1080" />
</g>
<g transform="matrix(1 0 0 1 540 540)" id="86bc9a83-666f-4a44-bf44-44078e42bc65"  >
</g>
<g transform="matrix(45 0 0 45 540 540)"  >
<g style=""   >
		<g transform="matrix(1 0 0 1 0 0.5)"  >
<path style="stroke: none; stroke-width: 1; stroke-dasharray: none; stroke-linecap: butt; stroke-dashoffset: 0; stroke-linejoin: miter; stroke-miterlimit: 4; fill: none; fill-rule: nonzero; opacity: 1;" vector-effect="non-scaling-stroke"  transform=" translate(-12, -13)" d="M 0 1 L 24 1 L 24 25 L 0 25 z" stroke-linecap="round" />
</g>
		<g transform="matrix(1 0 0 1 1.47 0.87)"  >
<path style="stroke: none; stroke-width: 1; stroke-dasharray: none; stroke-linecap: butt; stroke-dashoffset: 0; stroke-linejoin: miter; stroke-miterlimit: 4; fill: rgb(83,87,102); fill-rule: nonzero; opacity: 1;" vector-effect="non-scaling-stroke"  transform=" translate(-13.47, -13.37)" d="M 21.872 12.843 L 21.192 16.692 C 21.125862660333414 16.39140356116872 20.989473884991636 16.110744247086018 20.794 15.873000000000001 C 20.417 15.426000000000002 19.869 15.180000000000001 19.245 15.180000000000001 C 18.221 15.180000000000001 17.265 15.849000000000002 16.85 16.781000000000002 L 18.009 10.210000000000003 L 19.712 10.210000000000003 C 20.412 10.210000000000003 21.022 10.475000000000003 21.425 10.956000000000003 C 21.84 11.450000000000003 21.998 12.120000000000003 21.872 12.843000000000004 M 18.634 18.655000000000005 C 18.337 18.655000000000005 18.084 18.547000000000004 17.919 18.349000000000004 C 17.747 18.145000000000003 17.683 17.863000000000003 17.736 17.554000000000002 C 17.859 16.856 18.552 16.266000000000002 19.246000000000002 16.266000000000002 C 19.542 16.266000000000002 19.796000000000003 16.374000000000002 19.962000000000003 16.572000000000003 C 20.132000000000005 16.776000000000003 20.197000000000003 17.058000000000003 20.142000000000003 17.366000000000003 C 20.019000000000002 18.065000000000005 19.328000000000003 18.655000000000005 18.634000000000004 18.655000000000005 M 7.326000000000004 18.655000000000005 C 7.031000000000004 18.655000000000005 6.776000000000004 18.547000000000004 6.611000000000004 18.349000000000004 C 6.440000000000004 18.145000000000003 6.375000000000004 17.863000000000003 6.4310000000000045 17.555000000000003 C 6.553000000000004 16.856 7.2450000000000045 16.266000000000002 7.9390000000000045 16.266000000000002 C 8.235000000000005 16.266000000000002 8.489000000000004 16.374000000000002 8.653000000000004 16.572000000000003 C 8.825000000000005 16.776000000000003 8.890000000000004 17.058000000000003 8.835000000000004 17.366000000000003 C 8.712000000000005 18.065000000000005 8.020000000000005 18.655000000000005 7.326000000000004 18.655000000000005 M 22.258000000000003 10.258000000000004 C 21.642000000000003 9.527000000000005 20.740000000000002 9.124000000000004 19.712000000000003 9.124000000000004 L 18.2 9.124000000000004 L 18.462 7.637000000000004 C 18.488691670094063 7.479108417535388 18.444725688983066 7.3174588510971175 18.34173920428982 7.194837559976372 C 18.238752719596572 7.072216268855627 18.08712877669717 7.000985869696468 17.927 7 L 6.417 7 C 6.117109380841879 7 5.874 7.243109380841879 5.874 7.543 C 5.874 7.842890619158121 6.117109380841879 8.086 6.417 8.086 L 17.28 8.086 L 15.723 16.918 L 9.923000000000002 16.918 C 9.88277561863992 16.53421581999741 9.73044131077304 16.17076981150223 9.485000000000001 15.872999999999998 C 9.109000000000002 15.426 8.559000000000001 15.18 7.937000000000001 15.18 C 6.863000000000001 15.18 5.863000000000001 15.914 5.4830000000000005 16.918 L 5.127000000000001 16.918 L 5.2700000000000005 16.107 C 5.310785951196842 15.912958836114212 5.242562729195716 15.712114067946784 5.092027716070706 15.583061067514269 C 4.941492702945696 15.454008067081753 4.732583139759936 15.417268125193143 4.5470503461331315 15.487218461762852 C 4.361517552506328 15.55716879833256 4.228863922027626 15.72268629964666 4.2010000000000005 15.918999999999999 L 3.9450000000000003 17.366 C 3.918308329905937 17.523891582464614 3.9622743110169365 17.685541148902885 4.065260795710183 17.80816244002363 C 4.16824728040343 17.930783731144373 4.31987122330283 18.002014130303532 4.48 18.003 L 5.340000000000001 18.003 C 5.385000000000001 18.392 5.534000000000001 18.756 5.7780000000000005 19.048000000000002 C 6.1530000000000005 19.494000000000003 6.703 19.741000000000003 7.3260000000000005 19.741000000000003 C 8.401 19.741000000000003 9.401 19.007000000000005 9.780000000000001 18.003000000000004 L 16.647000000000002 18.003000000000004 C 16.691000000000003 18.392000000000003 16.841 18.755000000000003 17.086000000000002 19.048000000000002 C 17.461000000000002 19.494000000000003 18.011000000000003 19.741000000000003 18.633000000000003 19.741000000000003 C 19.708000000000002 19.741000000000003 20.708000000000002 19.007000000000005 21.087000000000003 18.003000000000004 L 21.607000000000003 18.003000000000004 C 21.871000000000002 18.003000000000004 22.097 17.814000000000004 22.141000000000002 17.554000000000002 L 22.94 13.031000000000002 C 23.124000000000002 11.988000000000003 22.882 11.003000000000002 22.257 10.258000000000003" stroke-linecap="round" />
</g>
		<g transform="matrix(1 0 0 1 -6.58 -0.43)"  >
<path style="stroke: none; stroke-width: 1; stroke-dasharray: none; stroke-linecap: butt; stroke-dashoffset: 0; stroke-linejoin: miter; stroke-miterlimit: 4; fill: rgb(83,87,102); fill-rule: nonzero; opacity: 1;" vector-effect="non-scaling-stroke"  transform=" translate(-5.42, -12.07)" d="M 9.812 9.667 C 9.812 9.366999999999999 9.568999999999999 9.124 9.269 9.124 L 1.543 9.124 C 1.2558897762674173 9.141432657596797 1.031969683043668 9.379361028157414 1.031969683043668 9.667000000000002 C 1.031969683043668 9.954638971842588 1.2558897762674173 10.192567342403205 1.5430000000000001 10.21 L 9.269 10.21 C 9.569 10.21 9.812 9.967 9.812 9.667000000000002 M 9.387 12.074 C 9.387 11.774 9.144 11.531 8.844000000000001 11.531 L 3.024000000000001 11.531 C 2.72410938084188 11.531 2.4810000000000008 11.77410938084188 2.4810000000000008 12.074000000000002 C 2.4810000000000008 12.373890619158121 2.72410938084188 12.617 3.024000000000001 12.617 L 8.844000000000001 12.617 C 9.144000000000002 12.617 9.387 12.374 9.387 12.074000000000002 M 8.42 13.938 L 4.502 13.938 C 4.202109380841879 13.938 3.9589999999999996 14.18110938084188 3.9589999999999996 14.481000000000002 C 3.9589999999999996 14.780890619158122 4.202109380841879 15.024000000000001 4.502 15.024000000000001 L 8.42 15.024000000000001 C 8.719890619158122 15.024000000000001 8.963000000000001 14.780890619158122 8.963000000000001 14.481000000000002 C 8.963000000000001 14.18110938084188 8.719890619158122 13.938 8.42 13.938" stroke-linecap="round" />
</g>
</g>
</g>
</svg>